<svg width="74" height="46" viewBox="0 0 74 46" fill="none" xmlns="http://www.w3.org/2000/svg">
<path d="M16.1538 3.2284C16.8298 1.7084 18.9118 1.6344 19.7278 3.0004L19.8458 3.2284L21.9298 7.9184C23.7495 12.0122 26.7758 15.4529 30.6038 17.7804L31.2478 18.1584L34.9478 20.2384C35.2419 20.4031 35.4902 20.6387 35.6699 20.9239C35.8497 21.2091 35.9552 21.5347 35.9769 21.8711C35.9985 22.2075 35.9357 22.544 35.794 22.8499C35.6523 23.1558 35.4364 23.4214 35.1658 23.6224L34.9498 23.7624L31.2478 25.8424C27.3426 28.0391 24.2012 31.3759 22.2438 35.4064L21.9298 36.0824L19.8458 40.7724C19.1698 42.2924 17.0878 42.3664 16.2718 41.0004L16.1538 40.7724L14.0698 36.0824C12.2501 31.9886 9.22384 28.5479 5.3958 26.2204L4.7518 25.8424L1.0518 23.7624C0.757661 23.5977 0.509406 23.3621 0.329663 23.0769C0.14992 22.7917 0.0444049 22.4661 0.0227337 22.1297C0.00106238 21.7933 0.0639239 21.4568 0.20559 21.1509C0.347256 20.845 0.563221 20.5795 0.833803 20.3784L1.0498 20.2384L4.7518 18.1584C8.65704 15.9617 11.7984 12.6249 13.7558 8.5944L14.0698 7.9184L16.1538 3.2284ZM17.9998 8.9244C15.5118 14.5244 11.4278 18.9924 6.0798 22.0004C11.4278 25.0084 15.5118 29.4764 17.9998 35.0764C20.4958 29.4624 24.5798 25.0044 29.9198 22.0004C24.5718 18.9924 20.4878 14.5244 17.9998 8.9244ZM34.4398 2.2444C35.4332 4.49932 37.1269 6.374 39.2698 7.5904C39.5898 7.7704 39.5898 8.2304 39.2698 8.4104C37.1263 9.62784 35.4325 11.504 34.4398 13.7604C34.4018 13.8453 34.3401 13.9175 34.262 13.9681C34.1839 14.0187 34.0928 14.0456 33.9998 14.0456C33.9068 14.0456 33.8157 14.0187 33.7376 13.9681C33.6595 13.9175 33.5978 13.8453 33.5598 13.7604C32.5668 11.5047 30.873 9.62932 28.7298 8.4124C28.6575 8.37115 28.5973 8.31149 28.5555 8.23948C28.5137 8.16747 28.4917 8.08568 28.4917 8.0024C28.4917 7.91913 28.5137 7.83734 28.5555 7.76533C28.5973 7.69332 28.6575 7.63366 28.7298 7.5924C30.8736 6.37445 32.5675 4.49754 33.5598 2.2404C33.5978 2.15547 33.6595 2.08334 33.7376 2.03273C33.8157 1.98212 33.9068 1.95519 33.9998 1.95519C34.0928 1.95519 34.1839 1.98212 34.262 2.03273C34.3401 2.08334 34.4018 2.15547 34.4398 2.2404V2.2444Z" fill="#0C79A4"/>
<path d="M60.9166 0.832237C61.2827 0.0089035 62.4105 -0.03118 62.8525 0.708737L62.9164 0.832237L64.0452 3.37265C65.0309 5.59015 66.6701 7.45386 68.7436 8.71457L69.0925 8.91932L71.0966 10.046C71.256 10.1352 71.3904 10.2628 71.4878 10.4173C71.5852 10.5718 71.6423 10.7482 71.6541 10.9304C71.6658 11.1126 71.6317 11.2949 71.555 11.4605C71.4783 11.6262 71.3613 11.7701 71.2147 11.879L71.0977 11.9548L69.0925 13.0815C66.9771 14.2714 65.2755 16.0788 64.2153 18.262L64.0452 18.6282L62.9164 21.1686C62.5502 21.9919 61.4225 22.032 60.9805 21.2921L60.9166 21.1686L59.7877 18.6282C58.802 16.4107 57.1628 14.5469 55.0893 13.2862L54.7405 13.0815L52.7363 11.9548C52.577 11.8656 52.4425 11.738 52.3451 11.5835C52.2478 11.429 52.1906 11.2526 52.1789 11.0704C52.1672 10.8882 52.2012 10.7059 52.2779 10.5403C52.3547 10.3746 52.4717 10.2307 52.6182 10.1218L52.7352 10.046L54.7405 8.91932C56.8558 7.72944 58.5574 5.92202 59.6176 3.73882L59.7877 3.37265L60.9166 0.832237ZM61.9165 3.91757C60.5688 6.9509 58.3566 9.37107 55.4598 11.0004C58.3566 12.6297 60.5688 15.0499 61.9165 18.0832C63.2685 15.0423 65.4806 12.6276 68.3731 11.0004C65.4763 9.37107 63.2641 6.9509 61.9165 3.91757ZM70.8215 0.299237C71.3596 1.52065 72.277 2.5361 73.4377 3.19499C73.6111 3.29249 73.6111 3.54165 73.4377 3.63915C72.2767 4.2986 71.3592 5.31485 70.8215 6.53707C70.8009 6.58308 70.7674 6.62215 70.7252 6.64956C70.6829 6.67697 70.6335 6.69156 70.5831 6.69156C70.5327 6.69156 70.4834 6.67697 70.4411 6.64956C70.3988 6.62215 70.3654 6.58308 70.3448 6.53707C69.8069 5.31526 68.8894 4.2994 67.7286 3.64024C67.6894 3.61789 67.6568 3.58557 67.6341 3.54657C67.6115 3.50756 67.5996 3.46326 67.5996 3.41815C67.5996 3.37305 67.6115 3.32874 67.6341 3.28974C67.6568 3.25073 67.6894 3.21842 67.7286 3.19607C68.8898 2.53634 69.8073 1.51969 70.3448 0.29707C70.3654 0.251062 70.3988 0.211994 70.4411 0.18458C70.4834 0.157166 70.5327 0.142578 70.5831 0.142578C70.6335 0.142578 70.6829 0.157166 70.7252 0.18458C70.7674 0.211994 70.8009 0.251062 70.8215 0.29707V0.299237Z" fill="#0C79A4"/>
</svg>
