<svg width="48" height="88" viewBox="0 0 48 88" fill="none" xmlns="http://www.w3.org/2000/svg">
<path d="M8.07739 66.6143C8.41539 65.8543 9.45639 65.8173 9.86439 66.5003L9.92339 66.6143L10.9654 68.9593C11.8753 71.0062 13.3884 72.7266 15.3024 73.8903L15.6244 74.0793L17.4744 75.1193C17.6215 75.2016 17.7456 75.3195 17.8355 75.4621C17.9253 75.6046 17.9781 75.7675 17.9889 75.9357C17.9998 76.1039 17.9683 76.2721 17.8975 76.425C17.8267 76.578 17.7187 76.7108 17.5834 76.8113L17.4754 76.8813L15.6244 77.9213C13.6718 79.0196 12.1011 80.688 11.1224 82.7033L10.9654 83.0413L9.92339 85.3863C9.58539 86.1463 8.54439 86.1833 8.13639 85.5003L8.07739 85.3863L7.03539 83.0413C6.12552 80.9944 4.61241 79.274 2.69839 78.1103L2.37639 77.9213L0.52639 76.8813C0.379319 76.799 0.255191 76.6811 0.16532 76.5385C0.0754482 76.3959 0.0226907 76.2331 0.0118551 76.0649C0.00101947 75.8967 0.0324502 75.7285 0.103283 75.5755C0.174116 75.4226 0.282099 75.2898 0.41739 75.1893L0.52539 75.1193L2.37639 74.0793C4.32901 72.9809 5.8997 71.3126 6.87839 69.2973L7.03539 68.9593L8.07739 66.6143ZM9.00039 69.4623C7.75639 72.2623 5.71439 74.4963 3.04039 76.0003C5.71439 77.5043 7.75639 79.7383 9.00039 82.5383C10.2484 79.7313 12.2904 77.5023 14.9604 76.0003C12.2864 74.4963 10.2444 72.2623 9.00039 69.4623ZM17.2204 66.1223C17.7171 67.2497 18.564 68.1871 19.6354 68.7953C19.7954 68.8853 19.7954 69.1153 19.6354 69.2053C18.5636 69.814 17.7167 70.7521 17.2204 71.8803C17.2014 71.9228 17.1705 71.9588 17.1315 71.9841C17.0924 72.0094 17.0469 72.0229 17.0004 72.0229C16.9539 72.0229 16.9083 72.0094 16.8693 71.9841C16.8303 71.9588 16.7994 71.9228 16.7804 71.8803C16.2839 70.7525 15.437 69.8148 14.3654 69.2063C14.3292 69.1857 14.2992 69.1558 14.2782 69.1198C14.2573 69.0838 14.2463 69.0429 14.2463 69.0013C14.2463 68.9597 14.2573 68.9188 14.2782 68.8828C14.2992 68.8468 14.3292 68.8169 14.3654 68.7963C15.4373 68.1873 16.2842 67.2489 16.7804 66.1203C16.7994 66.0778 16.8303 66.0418 16.8693 66.0165C16.9083 65.9912 16.9539 65.9777 17.0004 65.9777C17.0469 65.9777 17.0924 65.9912 17.1315 66.0165C17.1705 66.0418 17.2014 66.0778 17.2204 66.1203V66.1223Z" fill="#0C79A4"/>
<path d="M24.1544 2.22829C24.8304 0.708294 26.9124 0.634294 27.7284 2.00029L27.8464 2.22829L29.9304 6.91829C31.7501 11.0121 34.7764 14.4528 38.6044 16.7803L39.2484 17.1583L42.9484 19.2383C43.2425 19.403 43.4908 19.6386 43.6705 19.9238C43.8503 20.209 43.9558 20.5346 43.9775 20.871C43.9991 21.2074 43.9363 21.5439 43.7946 21.8498C43.6529 22.1557 43.437 22.4212 43.1664 22.6223L42.9504 22.7623L39.2484 24.8423C35.3432 27.039 32.2018 30.3758 30.2444 34.4063L29.9304 35.0823L27.8464 39.7723C27.1704 41.2923 25.0884 41.3663 24.2724 40.0003L24.1544 39.7723L22.0704 35.0823C20.2506 30.9885 17.2244 27.5478 13.3964 25.2203L12.7524 24.8423L9.05239 22.7623C8.75825 22.5976 8.50999 22.362 8.33025 22.0768C8.15051 21.7916 8.04499 21.466 8.02332 21.1296C8.00165 20.7932 8.06451 20.4567 8.20618 20.1508C8.34784 19.8449 8.56381 19.5793 8.83439 19.3783L9.05039 19.2383L12.7524 17.1583C16.6576 14.9616 19.799 11.6248 21.7564 7.59429L22.0704 6.91829L24.1544 2.22829ZM26.0004 7.92429C23.5124 13.5243 19.4284 17.9923 14.0804 21.0003C19.4284 24.0083 23.5124 28.4763 26.0004 34.0763C28.4964 28.4623 32.5804 24.0043 37.9204 21.0003C32.5724 17.9923 28.4884 13.5243 26.0004 7.92429ZM42.4404 1.24429C43.4338 3.49921 45.1275 5.37389 47.2704 6.59029C47.5904 6.77029 47.5904 7.23029 47.2704 7.41029C45.1269 8.62773 43.4331 10.5039 42.4404 12.7603C42.4024 12.8452 42.3406 12.9174 42.2626 12.968C42.1845 13.0186 42.0934 13.0455 42.0004 13.0455C41.9073 13.0455 41.8163 13.0186 41.7382 12.968C41.6601 12.9174 41.5984 12.8452 41.5604 12.7603C40.5673 10.5046 38.8736 8.62922 36.7304 7.41229C36.6581 7.37104 36.5979 7.31138 36.5561 7.23937C36.5143 7.16736 36.4922 7.08557 36.4922 7.00229C36.4922 6.91902 36.5143 6.83723 36.5561 6.76522C36.5979 6.69321 36.6581 6.63355 36.7304 6.59229C38.8742 5.37434 40.5681 3.49743 41.5604 1.24029C41.5984 1.15536 41.6601 1.08323 41.7382 1.03262C41.8163 0.982009 41.9073 0.955078 42.0004 0.955078C42.0934 0.955078 42.1845 0.982009 42.2626 1.03262C42.3406 1.08323 42.4024 1.15536 42.4404 1.24029V1.24429Z" fill="#0C79A4"/>
</svg>
