<svg width="46" height="46" viewBox="0 0 46 46" fill="none" xmlns="http://www.w3.org/2000/svg">
<path d="M42.1663 23.0007C42.1663 20.4836 41.6706 17.9913 40.7074 15.6659C39.7442 13.3405 38.3323 11.2276 36.5526 9.44777C34.7728 7.66798 32.6598 6.25618 30.3344 5.29296C28.009 4.32974 25.5167 3.83398 22.9997 3.83398V7.66732C26.0322 7.66725 28.9966 8.56639 31.5182 10.251C34.0397 11.9357 36.0051 14.3302 37.1658 17.1318C37.9365 18.9925 38.3331 20.9867 38.333 23.0007H42.1663ZM3.83301 19.1673V9.58398C3.83301 9.07565 4.03494 8.58814 4.39439 8.2287C4.75383 7.86925 5.24134 7.66732 5.74967 7.66732H15.333C15.8413 7.66732 16.3289 7.86925 16.6883 8.2287C17.0477 8.58814 17.2497 9.07565 17.2497 9.58398V17.2507C17.2497 17.759 17.0477 18.2465 16.6883 18.6059C16.3289 18.9654 15.8413 19.1673 15.333 19.1673H11.4997C11.4997 23.234 13.1151 27.1341 15.9907 30.0096C18.8663 32.8852 22.7664 34.5007 26.833 34.5007V30.6673C26.833 30.159 27.0349 29.6715 27.3944 29.312C27.7538 28.9526 28.2413 28.7507 28.7497 28.7507H36.4163C36.9247 28.7507 37.4122 28.9526 37.7716 29.312C38.1311 29.6715 38.333 30.159 38.333 30.6673V40.2506C38.333 40.759 38.1311 41.2465 37.7716 41.6059C37.4122 41.9654 36.9247 42.1673 36.4163 42.1673H26.833C14.1313 42.1673 3.83301 31.8691 3.83301 19.1673Z" fill="#02455F"/>
<path d="M33.6241 18.5993C34.2022 19.9945 34.4998 21.4898 34.5 23H31.05C31.05 20.865 30.2019 18.8175 28.6922 17.3078C27.1825 15.7981 25.135 14.95 23 14.95V11.5C25.2744 11.5001 27.4977 12.1747 29.3888 13.4383C31.2799 14.702 32.7537 16.498 33.6241 18.5993Z" fill="#02455F"/>
</svg>
