<svg width="79" height="79" viewBox="0 0 79 79" fill="none" xmlns="http://www.w3.org/2000/svg">
<path d="M68.1704 23.1737C67.0512 24.2929 65.965 25.3792 65.9321 26.4654C65.8333 27.5188 66.9525 28.605 68.0058 29.6254C69.5858 31.2712 71.1329 32.7525 71.0671 34.3654C71.0012 35.9783 69.3225 37.6571 67.6437 39.3029L54.0492 52.9304L49.375 48.2562L63.3646 34.2996L60.2046 31.1396L55.5304 35.7808L43.1867 23.4371L55.8267 10.83C57.1104 9.54625 59.25 9.54625 60.4679 10.83L68.1704 18.5325C69.4542 19.7504 69.4542 21.89 68.1704 23.1737ZM9.875 56.7817L41.3433 25.2804L53.6871 37.6242L22.2187 69.1254H9.875V56.7817Z" fill="#0C79A4"/>
<path d="M37.5316 17.512C36.9646 18.0597 36.4143 18.5913 36.3977 19.1229C36.3476 19.6384 36.9146 20.17 37.4482 20.6694C38.2486 21.4748 39.0323 22.1997 38.999 22.989C38.9656 23.7784 38.1152 24.5999 37.2648 25.4054L30.378 32.0744L28.0101 29.787L35.097 22.9568L33.4962 21.4104L31.1283 23.6817L24.8752 17.6409L31.2784 11.4712C31.9287 10.8429 33.0126 10.8429 33.6296 11.4712L37.5316 15.2407C38.1819 15.8367 38.1819 16.8838 37.5316 17.512ZM8 33.9592L23.9414 18.543L30.1945 24.5838L14.2532 40H8V33.9592Z" fill="#0C79A4"/>
</svg>
