<svg width="63" height="63" viewBox="0 0 63 63" fill="none" xmlns="http://www.w3.org/2000/svg">
<path d="M31.5 10.5C34.2848 10.5 36.9555 11.6062 38.9246 13.5754C40.8938 15.5445 42 18.2152 42 21C42 23.7848 40.8938 26.4555 38.9246 28.4246C36.9555 30.3938 34.2848 31.5 31.5 31.5C28.7152 31.5 26.0445 30.3938 24.0754 28.4246C22.1062 26.4555 21 23.7848 21 21C21 18.2152 22.1062 15.5445 24.0754 13.5754C26.0445 11.6062 28.7152 10.5 31.5 10.5ZM31.5 15.75C30.1076 15.75 28.7723 16.3031 27.7877 17.2877C26.8031 18.2723 26.25 19.6076 26.25 21C26.25 22.3924 26.8031 23.7277 27.7877 24.7123C28.7723 25.6969 30.1076 26.25 31.5 26.25C32.8924 26.25 34.2277 25.6969 35.2123 24.7123C36.1969 23.7277 36.75 22.3924 36.75 21C36.75 19.6076 36.1969 18.2723 35.2123 17.2877C34.2277 16.3031 32.8924 15.75 31.5 15.75ZM31.5 34.125C38.5088 34.125 52.5 37.6162 52.5 44.625V52.5H10.5V44.625C10.5 37.6162 24.4913 34.125 31.5 34.125ZM31.5 39.1125C23.7037 39.1125 15.4875 42.945 15.4875 44.625V47.5125H47.5125V44.625C47.5125 42.945 39.2962 39.1125 31.5 39.1125Z" fill="white"/>
</svg>
