<svg width="67" height="68" viewBox="0 0 67 68" fill="none" xmlns="http://www.w3.org/2000/svg">
<path d="M55 0.125C56.8174 0.124899 58.5661 0.819272 59.8884 2.06605C61.2106 3.31283 62.0065 5.01775 62.1131 6.832L62.125 7.25V31H63.9063C65.4429 31 66.7087 32.1685 66.8607 33.6648L66.875 33.9688V38.125C66.8751 39.9424 66.1807 41.6911 64.934 43.0134C63.6872 44.3356 61.9823 45.1315 60.168 45.2381L59.75 45.25H36C34.1826 45.2501 32.4339 44.5557 31.1116 43.309C29.7894 42.0622 28.9935 40.3573 28.8869 38.543L28.875 38.125V14.375H24.7188C23.9838 14.3753 23.2748 14.103 22.7291 13.6108C22.1833 13.1185 21.8395 12.4413 21.7642 11.7103L21.75 11.4063V7.25C21.7499 5.43262 22.4443 3.6839 23.691 2.36163C24.9378 1.03936 26.6428 0.243495 28.457 0.136875L28.875 0.125H55ZM62.125 35.75H40.75V38.125C40.75 38.9563 40.6075 39.7566 40.3463 40.5H59.75C60.3799 40.5 60.984 40.2498 61.4294 39.8044C61.8748 39.359 62.125 38.7549 62.125 38.125V35.75ZM45.5 21.5H40.75C40.1447 21.5007 39.5624 21.7325 39.1223 22.148C38.6821 22.5636 38.4172 23.1315 38.3817 23.7358C38.3462 24.3401 38.5429 24.9352 38.9314 25.3994C39.3199 25.8636 39.871 26.1619 40.4721 26.2334L40.75 26.25H45.5C46.1053 26.2493 46.6876 26.0175 47.1278 25.602C47.5679 25.1864 47.8328 24.6185 47.8683 24.0142C47.9038 23.4099 47.7072 22.8149 47.3186 22.3507C46.9301 21.8864 46.379 21.5881 45.7779 21.5166L45.5 21.5ZM50.25 12H40.75C40.1201 12 39.516 12.2502 39.0706 12.6956C38.6252 13.141 38.375 13.7451 38.375 14.375C38.375 15.0049 38.6252 15.609 39.0706 16.0544C39.516 16.4998 40.1201 16.75 40.75 16.75H50.25C50.8799 16.75 51.484 16.4998 51.9294 16.0544C52.3748 15.609 52.625 15.0049 52.625 14.375C52.625 13.7451 52.3748 13.141 51.9294 12.6956C51.484 12.2502 50.8799 12 50.25 12ZM28.875 4.875C28.2451 4.875 27.641 5.12522 27.1956 5.57062C26.7502 6.01602 26.5 6.62011 26.5 7.25V9.625H28.875V4.875Z" fill="#0C79A4"/>
<path d="M17.5 41C18.4565 40.9999 19.3769 41.3654 20.0728 42.0216C20.7688 42.6778 21.1876 43.5751 21.2438 44.53L21.25 44.75V57.25H22.1875C22.9963 57.25 23.6625 57.865 23.7425 58.6525L23.75 58.8125V61C23.7501 61.9565 23.3846 62.8769 22.7284 63.5728C22.0722 64.2688 21.1749 64.6876 20.22 64.7438L20 64.75H7.5C6.54349 64.7501 5.62311 64.3846 4.92717 63.7284C4.23124 63.0722 3.81237 62.1749 3.75625 61.22L3.75 61V48.5H1.5625C1.17568 48.5002 0.80254 48.3569 0.515293 48.0978C0.228046 47.8387 0.0471106 47.4823 0.00750006 47.0975L5.82622e-09 46.9375V44.75C-5.32772e-05 43.7935 0.365406 42.8731 1.0216 42.1772C1.6778 41.4812 2.57513 41.0624 3.53 41.0062L3.75 41H17.5ZM21.25 59.75H10V61C10 61.4375 9.925 61.8588 9.7875 62.25H20C20.3315 62.25 20.6495 62.1183 20.8839 61.8839C21.1183 61.6495 21.25 61.3315 21.25 61V59.75ZM12.5 52.25H10C9.6814 52.2504 9.37496 52.3723 9.14329 52.5911C8.91162 52.8098 8.77221 53.1087 8.75354 53.4267C8.73486 53.7448 8.83834 54.058 9.04283 54.3023C9.24732 54.5466 9.53738 54.7036 9.85375 54.7413L10 54.75H12.5C12.8186 54.7496 13.125 54.6277 13.3567 54.4089C13.5884 54.1902 13.7278 53.8913 13.7465 53.5733C13.7651 53.2552 13.6617 52.942 13.4572 52.6977C13.2527 52.4534 12.9626 52.2964 12.6463 52.2588L12.5 52.25ZM15 47.25H10C9.66848 47.25 9.35054 47.3817 9.11612 47.6161C8.8817 47.8505 8.75 48.1685 8.75 48.5C8.75 48.8315 8.8817 49.1495 9.11612 49.3839C9.35054 49.6183 9.66848 49.75 10 49.75H15C15.3315 49.75 15.6495 49.6183 15.8839 49.3839C16.1183 49.1495 16.25 48.8315 16.25 48.5C16.25 48.1685 16.1183 47.8505 15.8839 47.6161C15.6495 47.3817 15.3315 47.25 15 47.25ZM3.75 43.5C3.41848 43.5 3.10054 43.6317 2.86612 43.8661C2.6317 44.1005 2.5 44.4185 2.5 44.75V46H3.75V43.5Z" fill="#0C79A4"/>
</svg>
