<svg width="39" height="39" viewBox="0 0 39 39" fill="none" xmlns="http://www.w3.org/2000/svg">
<path d="M20.7185 16.25C20.7185 15.9268 20.59 15.6168 20.3615 15.3882C20.1329 15.1597 19.8229 15.0312 19.4997 15.0312C19.1765 15.0312 18.8665 15.1597 18.6379 15.3882C18.4094 15.6168 18.281 15.9268 18.281 16.25V17.3891L17.2946 16.8204C17.0157 16.6719 16.6901 16.6375 16.3864 16.7244C16.0826 16.8113 15.8245 17.0128 15.6665 17.2864C15.5084 17.5599 15.4628 17.8841 15.5391 18.1907C15.6155 18.4973 15.8079 18.7622 16.0758 18.9296L17.0622 19.4984L16.0758 20.0688C15.7957 20.2304 15.5912 20.4966 15.5074 20.809C15.4236 21.1214 15.4673 21.4542 15.629 21.7344C15.7906 22.0145 16.0568 22.219 16.3692 22.3028C16.6816 22.3866 17.0144 22.3429 17.2946 22.1812L18.281 21.6109V22.75C18.281 23.0732 18.4094 23.3832 18.6379 23.6118C18.8665 23.8403 19.1765 23.9688 19.4997 23.9688C19.8229 23.9688 20.1329 23.8403 20.3615 23.6118C20.59 23.3832 20.7185 23.0732 20.7185 22.75V21.6125L21.7048 22.1812C21.985 22.3429 22.3178 22.3866 22.6302 22.3028C22.9426 22.219 23.2088 22.0145 23.3705 21.7344C23.5321 21.4542 23.5758 21.1214 23.492 20.809C23.4082 20.4966 23.2037 20.2304 22.9236 20.0688L21.9372 19.5L22.9236 18.9312C23.2037 18.7696 23.4082 18.5034 23.492 18.191C23.5758 17.8786 23.5321 17.5458 23.3705 17.2656C23.2088 16.9855 22.9426 16.781 22.6302 16.6972C22.3178 16.6134 21.985 16.6571 21.7048 16.8188L20.7185 17.3875V16.25ZM10.9408 15.0312C11.2641 15.0312 11.5741 15.1597 11.8026 15.3882C12.0312 15.6168 12.1596 15.9268 12.1596 16.25V17.3875L13.1443 16.8188C13.4245 16.6571 13.7573 16.6134 14.0697 16.6972C14.3821 16.781 14.6483 16.9855 14.81 17.2656C14.9716 17.5458 15.0153 17.8786 14.9315 18.191C14.8477 18.5034 14.6432 18.7696 14.3631 18.9312L13.3767 19.5L14.3631 20.0688C14.5018 20.1488 14.6234 20.2553 14.7209 20.3824C14.8184 20.5094 14.89 20.6543 14.9315 20.809C14.973 20.9637 14.9836 21.125 14.9627 21.2838C14.9419 21.4426 14.89 21.5957 14.81 21.7344C14.7299 21.8731 14.6234 21.9947 14.4964 22.0922C14.3693 22.1897 14.2244 22.2613 14.0697 22.3028C13.915 22.3443 13.7537 22.3549 13.5949 22.334C13.4361 22.3132 13.283 22.2613 13.1443 22.1812L12.1596 21.6125V22.75C12.1596 23.0732 12.0312 23.3832 11.8026 23.6118C11.5741 23.8403 11.2641 23.9688 10.9408 23.9688C10.6176 23.9688 10.3076 23.8403 10.079 23.6118C9.85048 23.3832 9.72208 23.0732 9.72208 22.75V21.6109L8.73408 22.1796C8.45522 22.3281 8.1296 22.3625 7.82587 22.2756C7.52214 22.1887 7.26403 21.9872 7.10597 21.7136C6.94791 21.4401 6.90225 21.1159 6.97862 20.8093C7.05499 20.5027 7.24741 20.2378 7.51533 20.0704L8.5017 19.5L7.51533 18.9312C7.37662 18.8512 7.25503 18.7447 7.1575 18.6176C7.05998 18.4906 6.98842 18.3457 6.94693 18.191C6.90543 18.0363 6.8948 17.875 6.91565 17.7162C6.93651 17.5574 6.98843 17.4043 7.06845 17.2656C7.14847 17.1269 7.25504 17.0053 7.38205 16.9078C7.50906 16.8103 7.65404 16.7387 7.80871 16.6972C7.96338 16.6557 8.12471 16.6451 8.28348 16.666C8.44225 16.6868 8.59537 16.7387 8.73408 16.8188L9.72208 17.3891V16.25C9.72208 15.9268 9.85048 15.6168 10.079 15.3882C10.3076 15.1597 10.6176 15.0312 10.9408 15.0312ZM29.2789 16.25C29.2789 15.9268 29.1505 15.6168 28.922 15.3882C28.6934 15.1597 28.3834 15.0312 28.0602 15.0312C27.737 15.0312 27.427 15.1597 27.1984 15.3882C26.9699 15.6168 26.8414 15.9268 26.8414 16.25V17.3891L25.8551 16.8204C25.5762 16.6719 25.2506 16.6375 24.9469 16.7244C24.6431 16.8113 24.385 17.0128 24.227 17.2864C24.0689 17.5599 24.0233 17.8841 24.0996 18.1907C24.176 18.4973 24.3684 18.7622 24.6363 18.9296L25.6227 19.4984L24.6347 20.0688C24.3546 20.2304 24.1501 20.4966 24.0663 20.809C23.9825 21.1214 24.0262 21.4542 24.1878 21.7344C24.3494 22.0145 24.6157 22.219 24.9281 22.3028C25.2405 22.3866 25.5733 22.3429 25.8535 22.1812L26.8414 21.6109V22.75C26.8414 23.0732 26.9699 23.3832 27.1984 23.6118C27.427 23.8403 27.737 23.9688 28.0602 23.9688C28.3834 23.9688 28.6934 23.8403 28.922 23.6118C29.1505 23.3832 29.2789 23.0732 29.2789 22.75V21.6125L30.2653 22.1812C30.5455 22.3429 30.8783 22.3866 31.1907 22.3028C31.5031 22.219 31.7693 22.0145 31.931 21.7344C32.0926 21.4542 32.1363 21.1214 32.0525 20.809C31.9687 20.4966 31.7642 20.2304 31.4841 20.0688L30.4977 19.5L31.4841 18.9312C31.7642 18.7696 31.9687 18.5034 32.0525 18.191C32.1363 17.8786 32.0926 17.5458 31.931 17.2656C31.7693 16.9855 31.5031 16.781 31.1907 16.6972C30.8783 16.6134 30.5455 16.6571 30.2653 16.8188L29.2789 17.3875V16.25Z" fill="#FDC103"/>
<path fill-rule="evenodd" clip-rule="evenodd" d="M16.159 5.28125C13.1723 5.28125 10.8063 5.28125 8.95538 5.52988C7.05088 5.78663 5.50875 6.32612 4.29163 7.54162C3.07613 8.75875 2.53663 10.3009 2.27987 12.2054C2.03125 14.0579 2.03125 16.4223 2.03125 19.409V19.591C2.03125 22.5777 2.03125 24.9438 2.27987 26.7946C2.53663 28.6991 3.07613 30.2412 4.29163 31.4584C5.50875 32.6739 7.05088 33.2134 8.95538 33.4701C10.8079 33.7188 13.1723 33.7188 16.159 33.7188H22.841C25.8277 33.7188 28.1938 33.7188 30.0446 33.4701C31.9491 33.2134 33.4912 32.6739 34.7084 31.4584C35.9239 30.2412 36.4634 28.6991 36.7201 26.7946C36.9688 24.9421 36.9688 22.5777 36.9688 19.591V19.409C36.9688 16.4223 36.9688 14.0563 36.7201 12.2054C36.4634 10.3009 35.9239 8.75875 34.7084 7.54162C33.4912 6.32612 31.9491 5.78663 30.0446 5.52988C28.1921 5.28125 25.8277 5.28125 22.841 5.28125H16.159ZM6.01575 9.26575C6.70312 8.57838 7.64563 8.16562 9.28038 7.94625C10.9509 7.722 13.1511 7.71875 16.25 7.71875H22.75C25.8489 7.71875 28.0508 7.722 29.7213 7.94625C31.3544 8.16562 32.2969 8.57838 32.9843 9.26575C33.6716 9.95313 34.0844 10.8956 34.3037 12.5304C34.528 14.2009 34.5312 16.4011 34.5312 19.5C34.5312 22.5989 34.528 24.8008 34.3037 26.4713C34.0844 28.1044 33.6716 29.0469 32.9843 29.7343C32.2969 30.4216 31.3544 30.8344 29.7196 31.0538C28.0507 31.278 25.8489 31.2812 22.75 31.2812H16.25C13.1511 31.2812 10.9509 31.278 9.27875 31.0538C7.64563 30.8344 6.70312 30.4216 6.01575 29.7343C5.32837 29.0469 4.91563 28.1044 4.69625 26.4696C4.472 24.7991 4.46875 22.5989 4.46875 19.5C4.46875 16.4011 4.472 14.2009 4.69625 12.5287C4.91563 10.8956 5.32837 9.95313 6.01575 9.26575Z" fill="#FDC103"/>
</svg>
