<svg width="38" height="38" viewBox="0 0 38 38" fill="none" xmlns="http://www.w3.org/2000/svg">
<path d="M5 5H34V32H5V5Z" fill="#D9D9D9"/>
<path fill-rule="evenodd" clip-rule="evenodd" d="M26.3542 37.375C29.2771 37.375 32.0803 36.2139 34.1471 34.1471C36.2139 32.0803 37.375 29.2771 37.375 26.3542V11.0208C37.375 8.09793 36.2139 5.29473 34.1471 3.22793C32.0803 1.16112 29.2771 0 26.3542 0H11.0208C8.09793 0 5.29473 1.16112 3.22793 3.22793C1.16112 5.29473 0 8.09793 0 11.0208V26.3542C0 29.2771 1.16112 32.0803 3.22793 34.1471C5.29473 36.2139 8.09793 37.375 11.0208 37.375H26.3542ZM21.9669 6.73325C21.8585 6.41018 21.6387 6.13615 21.347 5.96005C21.0552 5.78395 20.7104 5.71723 20.374 5.7718C20.0376 5.82637 19.7315 5.99867 19.5104 6.25798C19.2893 6.51728 19.1674 6.84671 19.1667 7.1875V24.4375C19.1667 25.2904 18.9137 26.1242 18.4399 26.8334C17.966 27.5426 17.2925 28.0953 16.5045 28.4217C15.7165 28.7481 14.8494 28.8335 14.0128 28.6671C13.1763 28.5007 12.4079 28.09 11.8048 27.4869C11.2017 26.8838 10.7909 26.1154 10.6245 25.2788C10.4581 24.4423 10.5435 23.5752 10.8699 22.7872C11.1963 21.9992 11.7491 21.3257 12.4583 20.8518C13.1675 20.3779 14.0012 20.125 14.8542 20.125C15.2354 20.125 15.601 19.9735 15.8706 19.704C16.1402 19.4344 16.2917 19.0687 16.2917 18.6875C16.2917 18.3063 16.1402 17.9406 15.8706 17.671C15.601 17.4015 15.2354 17.25 14.8542 17.25C13.4326 17.25 12.043 17.6715 10.861 18.4613C9.67903 19.2511 8.75779 20.3736 8.21378 21.687C7.66978 23.0003 7.52744 24.4455 7.80477 25.8397C8.0821 27.2339 8.76665 28.5146 9.77184 29.5198C10.777 30.525 12.0577 31.2096 13.452 31.4869C14.8462 31.7642 16.2914 31.6219 17.6047 31.0779C18.918 30.5339 20.0406 29.6126 20.8304 28.4307C21.6201 27.2487 22.0417 25.8591 22.0417 24.4375V11.8987C23.5117 13.2633 25.5817 14.375 28.2708 14.375C28.6521 14.375 29.0177 14.2235 29.2873 13.954C29.5569 13.6844 29.7083 13.3187 29.7083 12.9375C29.7083 12.5563 29.5569 12.1906 29.2873 11.921C29.0177 11.6515 28.6521 11.5 28.2708 11.5C26.4078 11.5 24.9914 10.7333 23.9411 9.73858C22.8678 8.71892 22.2199 7.49033 21.9669 6.73325Z" fill="black"/>
</svg>
