<svg width="46" height="46" viewBox="0 0 46 46" fill="none" xmlns="http://www.w3.org/2000/svg">
<path fill-rule="evenodd" clip-rule="evenodd" d="M5.74967 7.66602H40.2497C40.758 7.66602 41.2455 7.86795 41.605 8.22739C41.9644 8.58684 42.1663 9.07435 42.1663 9.58268V36.416C42.1663 36.9243 41.9644 37.4119 41.605 37.7713C41.2455 38.1307 40.758 38.3327 40.2497 38.3327H5.74967C5.24134 38.3327 4.75383 38.1307 4.39439 37.7713C4.03494 37.4119 3.83301 36.9243 3.83301 36.416V9.58268C3.83301 9.07435 4.03494 8.58684 4.39439 8.22739C4.75383 7.86795 5.24134 7.66602 5.74967 7.66602ZM36.4758 11.3345L23.2987 21.8762C23.2138 21.944 23.1083 21.9809 22.9997 21.9809C22.891 21.9809 22.7856 21.944 22.7007 21.8762L9.52359 11.3345L7.72576 13.5808L20.9048 24.1225C21.4994 24.5981 22.2382 24.8572 22.9997 24.8572C23.7611 24.8572 24.4999 24.5981 25.0946 24.1225L38.2736 13.5808L36.4758 11.3345Z" fill="#02455F"/>
</svg>
